PathFileType	4	(X/Y/Z)	5_1_42_p0_0-368_filt_butterworth.trc
DataRate	CameraRate	NumFrames	NumMarkers	Units	OrigDataRate	OrigDataStartFrame	OrigNumFrames
59.0	59.0	5	27	m	59.0	230	368
Frame#	Time	RHip			RKnee			RAnkle			RBigToe			RSmallToe			RHeel			LHip			LKnee			LAnkle			LBigToe			LSmallToe			LHeel			Neck			Head			Nose			RShoulder			RElbow			RWrist			RThumb			RIndex			RPinky			LShoulder			LElbow			LWrist			LThumb			LIndex			LPinky			
		X1	Y1	Z1	X2	Y2	Z2	X3	Y3	Z3	X4	Y4	Z4	X5	Y5	Z5	X6	Y6	Z6	X7	Y7	Z7	X8	Y8	Z8	X9	Y9	Z9	X10	Y10	Z10	X11	Y11	Z11	X12	Y12	Z12	X13	Y13	Z13	X14	Y14	Z14	X15	Y15	Z15	X16	Y16	Z16	X17	Y17	Z17	X18	Y18	Z18	X19	Y19	Z19	X20	Y20	Z20	X21	Y21	Z21	X22	Y22	Z22	X23	Y23	Z23	X24	Y24	Z24	X25	Y25	Z25	X26	Y26	Z26	X27	Y27	Z27	
230	3.8983050847457625	0.33128772891904124	0.7387790451581357	0.8747607602130965	0.3581508543402697	0.7049831969235127	1.2495042335603768	0.38551981996993895	0.8114925167163488	1.694011395784118	0.36876252461486536	0.5054412043871301	1.643874658723349	0.4149456102755965	0.5765590447247201	1.6647734254938735	0.38342786734006584	0.8691034885871743	1.7442051524566757	0.15109119112403285	0.7044177625057622	0.8630318246630393	0.19510980346348447	0.6531885170313071	1.2604533717983155	0.20436023899411976	0.7523218539334549	1.6813719469574624	0.23076158452625686	0.5045192445948614	1.6518910366735104	0.1717700893030778	0.5668975783647886	1.664732802891435	0.19024401560699195	0.8924646757172214	1.7675764645831444	0.29703398519613267	0.38690788107607427	0.6072237599861697	0.3427772313647694	0.09567311662562128	0.35950882578692683	0.3444212374638729	0.14704832439071136	0.5338650319104722	0.43281106752953646	0.3825534711234853	0.5715359844295882	0.45855548931463536	0.566633153053157	0.8042100254759414	0.42529079373877043	0.48136856575999676	0.9871669570152461	0.40023664142608684	0.378043965114181	1.0553674984814174	0.4064348972657995	0.3984407890130708	1.0676853972675353	0.4250842916900084	0.4965941291087855	1.092626031022614	0.1583181622468707	0.2959040787368784	0.5789445991077364	0.12353294416000271	0.3275884915888368	0.8031446680415242	0.2794342334605655	0.14287105266179	0.8265902482257874	0.3638188766360382	0.08449539420391679	0.8503700113099752	0.3562882906783142	0.06657547642021158	0.8654893034072206	0.3022684461707993	0.10042745822457591	0.8956596001671613
231	3.915254237288136	0.3315119741588178	0.7383851266151348	0.8756684776948943	0.36157836350620215	0.6989081150588279	1.2464853117535675	0.38674543808153083	0.8177612784731279	1.696669748589292	0.36712570073095435	0.5000221847198818	1.6414925477434243	0.41416877814246056	0.5739022045461892	1.6636833357759238	0.3835910214350969	0.8680856420821632	1.7439557300788802	0.14962349478364456	0.710364919081372	0.8667354351175284	0.19691837315865962	0.6494915881779365	1.2585200574239275	0.20743470746617168	0.7524690624768655	1.681360450292601	0.23088284192278485	0.49998017359533115	1.6477158377116319	0.17352031061124112	0.5612137370146686	1.6602493484410494	0.19161087396773915	0.8928307279692171	1.7669624216718915	0.2972985310562136	0.38729982719459216	0.6102152777539124	0.3426979932443925	0.09310359404125448	0.36814476927182893	0.3456630877210636	0.1452488604215575	0.5413238380296255	0.4342471736036835	0.38075614085606396	0.5758042956115791	0.45847546946810014	0.5673145353976128	0.8075597370642489	0.4232635593749064	0.4834255070183665	0.9881100923011698	0.3902990605438088	0.38453747119423715	1.0586553989585892	0.40120283608282187	0.3953055186978904	1.0677789132783118	0.42206905764564695	0.4906460618898245	1.0914344037595443	0.15903939238712858	0.2960624494994809	0.5859757102563249	0.1273877691572511	0.33402771747335497	0.8077785491300511	0.2750183302839568	0.14838446815503475	0.8392112279921893	0.35792676924769545	0.09528255180100297	0.8665679809447339	0.35013874455009064	0.0740546056564379	0.8834695823443346	0.30011187142938567	0.1146037534898287	0.9100132508061938
232	3.9322033898305087	0.3317633275713747	0.7349967865458721	0.8779789456991446	0.36671253041148816	0.6898649103934397	1.2435455653178655	0.38727095814695917	0.82242247030931	1.6995615861528726	0.3663275672551851	0.49771890583861156	1.6408948919801005	0.41419679654926334	0.5727130374695067	1.6634399967796802	0.38357867025481956	0.8664370811307165	1.74385037753333	0.1482249831693355	0.7115818558124664	0.8685042955218096	0.1976657592312144	0.648588340984509	1.2578127108095984	0.2086229754757013	0.7523358967754885	1.6813693051917733	0.2308996586869813	0.4944373367321999	1.643365076814662	0.17665602252513488	0.5530531151426252	1.6565239487940546	0.1922969090075265	0.8898759716580451	1.7654203124643184	0.29752790447381544	0.38765309632526435	0.6130826259237441	0.3427628397584957	0.09164630101265352	0.37518695114692097	0.3468463110418951	0.14483834843227153	0.5478011219846707	0.4360476654050097	0.3803017479303605	0.5806207658398593	0.4583897363037639	0.5678724384984748	0.8107827113085494	0.4209161050917033	0.4792535901948124	0.987533987706009	0.3820693259133077	0.38432835072509847	1.0579281541486805	0.3948920061055425	0.3885579788960979	1.067747478145693	0.420111822377058	0.4719062314001999	1.085813039399825	0.15980999549546177	0.2970149728445613	0.593750893785419	0.1297429732605241	0.3420573588494153	0.8147430702640835	0.2690366364877477	0.15909451304096153	0.858351217835815	0.3460139645608707	0.11887014875685803	0.8905536161530065	0.3389659711979369	0.09051285276685969	0.9072731580615664	0.29731525286496346	0.13118970832304383	0.931894593432611
233	3.9491525423728815	0.33206448693352103	0.7276150306768995	0.8807041151410561	0.3712766267047816	0.6804610720347806	1.2415133587603517	0.3872158862498831	0.8244125354919933	1.7028612593194319	0.3659915069352336	0.49572904067536244	1.6406155290468811	0.41436328999165895	0.5721491542949205	1.6633345537078665	0.3836714969073161	0.8644717179138495	1.7440150804996353	0.14804754839794385	0.7040649597307747	0.8684858324844873	0.19769588750538103	0.649432391291497	1.257913147054316	0.20872788711943208	0.7521773456409645	1.6813861347330197	0.23063217912363865	0.48987520805875495	1.6396420676750825	0.17977322900742068	0.5458970519393963	1.654341763941888	0.1939568362150302	0.8822521744530423	1.762031831200033	0.2977450365888904	0.38804047141646547	0.6159945517842239	0.34319079578089084	0.09262692479253037	0.37961533696254296	0.34718940400112236	0.14641760128676898	0.5528787192939493	0.4379111724305105	0.38029053103210336	0.5857534492613248	0.4582900148398057	0.5670473550417631	0.8136503081229611	0.4175098248722761	0.46837927053382	0.9860394509368715	0.37636493574019986	0.3749194264815418	1.054917879119758	0.387636942299695	0.3815961637564182	1.0678363457765692	0.41843438590020854	0.44352016125249816	1.078375537002937	0.1604732460624558	0.29821099908903187	0.6011086034646029	0.13059784742925884	0.35163399697048714	0.8232271983247339	0.2636566917312605	0.1754906008847874	0.8817133098357303	0.3325504848462957	0.14868956893893168	0.9191683680577998	0.3270392306197328	0.11290681987600391	0.9342950789166546	0.29558601559970776	0.1451020070207119	0.9566440381110117
234	3.9661016949152543	0.33194085629878056	0.7178075837065526	0.8825501109067675	0.37364331150277014	0.6740781632198518	1.240687681940904	0.3869611306328045	0.8246597249807806	1.704311312620931	0.3654778879629378	0.49228975591473245	1.639066359697353	0.41429789782595455	0.5718459176859946	1.6631594502479239	0.3838194226528414	0.8628936948470758	1.7441350931496968	0.14899755947522314	0.6895808126879335	0.8680948982513165	0.19749950492087798	0.6506446233621984	1.2581795101351707	0.20860688452409246	0.7521042498082272	1.6813910821805265	0.2302200936030521	0.4875226767065669	1.6369829435769727	0.1812195904231361	0.5437369734060895	1.6536730211821489	0.1963685357754529	0.8718826320112303	1.7568430247842497	0.29775914050421354	0.38842961275329624	0.6186052207101183	0.34396138352705685	0.09565064794019444	0.38141246480965735	0.34694307103654487	0.14864235449257107	0.5563982316608663	0.4395029510707639	0.37952004458142985	0.5909072257410029	0.45829863899424955	0.5639573113356596	0.8168093163391731	0.413555307284735	0.45209472834521075	0.9842213703473801	0.3724742693241758	0.357438174571762	1.0522403809409357	0.38043656680494997	0.3741784778320981	1.06782729473006	0.41563437099540573	0.4162642215334153	1.0728541585620273	0.16114430277041916	0.2990791137065608	0.6075241633385753	0.1303816290989965	0.36390895905735765	0.8327740149343987	0.2610737150377173	0.19442278148243167	0.9048877014694943	0.32330919184369367	0.170895917281838	0.9465288185063984	0.3190104795254607	0.13341796588370675	0.9601994611075912	0.29559503410632143	0.15508010538439118	0.978901982615723
